<svg version="1.0" xmlns="http://www.w3.org/2000/svg" width="93.333" height="93.333" viewBox="0 0 70 70"><path d="M26.5 1.3c-7 1.8-11 4.2-16 9.2-17.1 17.1-11.8 46 10.3 56.3 4.8 2.2 7.1 2.7 14.2 2.7 10.4 0 17.4-2.9 24.5-10 7.1-7.1 10-14.1 10-24.5s-2.9-17.4-10-24.5C51.1 2 37.9-1.6 26.5 1.3zm17.2 5.2c2.8.8 6.2 2.4 7.5 3.5l2.3 1.9-5.1.1h-5.2l-3.7 15.2c-2.1 8.4-4.1 15.9-4.4 16.6-.4.7-2.4-6.2-4.6-15.2l-3.8-16.5-5.1-.3-5.1-.3 3.6-2.2c6.7-4.2 15.4-5.2 23.6-2.8zM62.3 23c3.3 6.9 3.1 17.8-.5 25.1-1.6 3.1-3.7 6.4-4.8 7.4-2 1.8-2 1.8-2-20.6l.1-22.4 2.5 3c1.4 1.6 3.5 5 4.7 7.5zM13.8 45.7l-.3 10.8-3.2-4.9c-6.7-10-6.7-22.6-.1-32.9l3.3-5.2.3 10.8c.1 5.9.1 15.5 0 21.4zm12.7-3.1l3.7 15.5 4.6-.3 4.6-.3 3.8-15 3.7-15v15.2l.1 15.2 3.8.3 3.7.3-5.6 2.8c-7.3 3.6-14.9 4.4-22.1 2.3-3.1-.9-6.6-2.5-7.9-3.6l-2.4-1.9 2.8-.1H22V42.5c0-8.5.2-15.5.4-15.5s2.1 7 4.1 15.6z"/></svg>